<svg width="64" height="64" viewBox="0 0 64 64" fill="none" xmlns="http://www.w3.org/2000/svg">
<circle cx="32" cy="32" r="29.5" stroke="#64FFDA" stroke-width="3"/>
<path d="M30.5 47.75C30.5 48.5784 31.1716 49.25 32 49.25C32.8284 49.25 33.5 48.5784 33.5 47.75H30.5ZM33.0607 16.0643C32.4749 15.4786 31.5251 15.4786 30.9393 16.0643L21.3934 25.6103C20.8076 26.1961 20.8076 27.1458 21.3934 27.7316C21.9792 28.3174 22.9289 28.3174 23.5147 27.7316L32 19.2463L40.4853 27.7316C41.0711 28.3174 42.0208 28.3174 42.6066 27.7316C43.1924 27.1458 43.1924 26.1961 42.6066 25.6103L33.0607 16.0643ZM33.5 47.75L33.5 17.125H30.5L30.5 47.75H33.5Z" fill="#64FFDA"/>
</svg>
